<svg width="226" height="140" viewBox="0 0 226 140" fill="none" xmlns="http://www.w3.org/2000/svg">
<g opacity="0.05" clip-path="url(#clip0_1_3)">
<path fill-rule="evenodd" clip-rule="evenodd" d="M158.836 53.6375L126.144 6.66193C117.062 6.66193 107.98 6.66193 98.8986 6.66193L66.2063 53.6375C66.2063 77.9794 66.2063 102.319 66.2063 126.662H79.4385V93.3272H145.604V126.662H158.836C158.836 102.319 158.836 77.9794 158.836 53.6375ZM79.4385 57.8473L105.782 19.9946H119.261L145.604 57.8473V79.9945H79.4385V57.8473Z" fill="#181818"/>
<path fill-rule="evenodd" clip-rule="evenodd" d="M34.752 126.667H52.9312V140H27.8687L0 99.9563C0 79.9858 0 60.0139 0 40.0441L27.8687 0H52.9312V13.3327H34.752L13.2323 44.254V95.7463L34.752 126.667Z" fill="#181818"/>
<path fill-rule="evenodd" clip-rule="evenodd" d="M225.006 40.0441L197.136 0H172.073V13.3327H190.255L211.772 44.254V95.7463L190.255 126.667H172.073V140H197.136L225.006 99.9563C225.006 79.9858 225.006 60.0139 225.006 40.0441Z" fill="#181818"/>
</g>
<defs>
<clipPath id="clip0_1_3">
<rect width="225.248" height="140" fill="white"/>
</clipPath>
</defs>
</svg>
