<?xml version="1.0" standalone="no"?>
<!DOCTYPE svg PUBLIC "-//W3C//DTD SVG 20010904//EN"
 "http://www.w3.org/TR/2001/REC-SVG-20010904/DTD/svg10.dtd">
<svg version="1.0" xmlns="http://www.w3.org/2000/svg"
 width="904.000000pt" height="904.000000pt" viewBox="0 0 904.000000 904.000000"
 preserveAspectRatio="xMidYMid meet">
<metadata>
Created by potrace 1.14, written by Peter Selinger 2001-2017
</metadata>
<g transform="translate(0.000000,904.000000) scale(0.100000,-0.100000)"
fill="#000000" stroke="none">
<path d="M1102 7303 c-7 -10 -57 -83 -112 -163 -55 -79 -107 -154 -115 -165
-23 -31 -210 -299 -310 -446 -49 -72 -94 -136 -100 -142 -5 -7 -28 -39 -50
-72 -22 -33 -44 -64 -48 -70 -18 -22 -207 -296 -207 -300 0 -3 -7 -13 -16 -22
-9 -10 -45 -60 -80 -111 l-64 -93 0 -1199 0 -1199 60 -87 c34 -47 91 -129 127
-182 37 -54 71 -98 75 -100 4 -2 8 -8 8 -13 0 -5 19 -35 43 -68 23 -32 74
-105 112 -160 39 -56 86 -124 105 -150 42 -58 55 -77 78 -112 9 -15 51 -75 92
-134 41 -58 79 -115 85 -126 5 -10 13 -19 17 -19 5 0 8 -6 8 -14 0 -8 4 -16 8
-18 5 -1 68 -88 140 -193 73 -104 137 -198 144 -208 12 -16 48 -17 514 -17
l501 0 0 265 c0 235 -2 265 -16 266 -9 1 -172 2 -363 3 l-346 1 -19 25 c-11
14 -41 57 -68 95 -27 39 -83 119 -124 178 -42 60 -84 121 -93 135 -9 15 -21
32 -25 37 -12 14 -116 162 -128 184 -18 31 -90 126 -97 129 -5 2 -8 8 -8 13 0
5 -67 105 -150 223 l-150 214 0 1031 0 1031 57 83 c31 45 60 84 65 85 4 2 8 9
8 16 0 7 8 21 18 32 9 10 35 46 58 79 33 50 159 231 409 590 40 57 160 230
187 268 7 11 23 33 36 50 l23 32 347 2 c191 0 354 1 363 2 14 1 16 32 16 266
l0 265 -501 0 c-466 0 -502 -1 -514 -17z"/>
<path d="M6883 7058 c0 -145 4 -265 8 -268 4 -3 168 -5 364 -4 l357 1 41 -61
c22 -34 44 -62 49 -64 4 -2 8 -7 8 -12 0 -7 164 -248 188 -276 5 -6 21 -28 35
-50 14 -21 50 -73 79 -115 29 -42 73 -105 97 -140 25 -35 48 -65 53 -67 4 -2
8 -8 8 -13 0 -5 42 -69 93 -142 51 -72 119 -169 150 -214 l57 -82 0 -1031 0
-1031 -67 -97 c-37 -53 -69 -99 -72 -102 -3 -3 -28 -39 -56 -80 -27 -41 -55
-81 -62 -88 -6 -7 -22 -30 -34 -52 -13 -22 -26 -40 -31 -40 -4 0 -8 -7 -8 -15
0 -8 -4 -15 -10 -15 -5 0 -10 -6 -10 -14 0 -8 -4 -16 -8 -18 -5 -1 -28 -32
-52 -68 -24 -36 -49 -70 -54 -77 -6 -7 -35 -47 -64 -90 -29 -43 -104 -152
-167 -243 -63 -91 -120 -174 -127 -184 -36 -55 -16 -52 -401 -52 -231 1 -358
-3 -359 -9 0 -5 -2 -126 -3 -267 l-1 -258 501 0 501 0 60 88 c32 48 61 89 64
92 3 3 14 18 24 35 11 16 23 34 28 40 8 8 182 258 230 329 7 10 27 38 43 60
17 23 52 75 80 116 27 41 55 81 62 88 7 7 13 17 13 22 0 5 7 16 16 25 23 22
64 84 64 95 0 4 4 10 8 12 4 2 32 39 62 83 30 44 57 82 60 85 3 3 29 39 56 80
28 41 65 95 83 120 17 25 53 77 79 115 26 39 51 75 57 82 5 7 15 19 22 27 6 7
10 16 8 18 -3 2 -5 17 -5 34 0 30 -1 118 -1 144 1 8 0 35 0 60 0 25 0 51 0 58
1 13 1 83 1 105 -1 15 -1 1545 0 1570 0 32 0 97 -1 110 0 6 0 40 1 74 1 34 -1
66 -4 72 -4 5 -2 12 2 15 5 3 7 18 5 33 -2 16 -4 47 -3 71 1 38 -8 55 -82 160
-109 153 -161 229 -173 250 -5 9 -16 21 -22 25 -7 4 -13 13 -13 20 -1 7 -14
28 -30 47 -17 19 -30 40 -30 46 0 7 -3 14 -8 16 -7 3 -28 32 -115 155 -20 29
-37 57 -37 62 0 5 -4 11 -8 13 -8 3 -28 31 -195 273 -42 61 -80 115 -84 120
-4 6 -28 39 -52 75 -25 36 -48 67 -51 70 -4 3 -9 12 -13 20 -4 8 -25 40 -47
70 -22 30 -62 87 -88 125 -26 39 -52 76 -59 83 -9 9 -124 12 -511 12 l-498 0
-1 -262z"/>
<path d="M3964 7050 c-8 -3 -33 -32 -56 -65 -140 -200 -187 -268 -232 -335
-28 -41 -54 -77 -57 -80 -3 -3 -38 -52 -77 -110 -40 -58 -85 -123 -100 -145
-16 -22 -51 -72 -78 -111 -27 -39 -105 -152 -174 -250 -68 -99 -144 -208 -168
-244 -25 -36 -48 -67 -51 -70 -4 -3 -18 -23 -31 -45 -13 -22 -32 -49 -42 -59
-10 -11 -18 -26 -18 -33 0 -7 -4 -13 -8 -13 -4 0 -28 -30 -52 -67 -24 -38 -46
-70 -50 -73 -3 -3 -31 -44 -63 -91 l-58 -86 0 -1414 c0 -778 0 -1435 0 -1460
l1 -46 263 1 262 1 2 645 c1 355 2 654 2 666 l1 20 1318 0 c724 1 1319 -3
1322 -7 3 -4 4 -297 4 -651 -1 -353 0 -650 2 -659 4 -14 36 -15 262 -15 141 0
259 3 262 7 3 4 5 662 4 1462 l0 1454 -77 109 c-43 60 -82 116 -87 124 -6 8
-87 124 -180 258 -94 134 -170 246 -170 248 0 3 -5 10 -10 17 -29 34 -56 72
-185 257 -77 111 -144 210 -150 221 -5 10 -13 19 -17 19 -5 0 -8 5 -8 10 0 6
-9 20 -20 32 -11 12 -20 28 -20 35 0 7 -4 13 -8 13 -4 0 -16 13 -25 30 -10 16
-23 35 -30 43 -7 7 -16 20 -22 29 -5 9 -30 45 -54 80 -199 286 -244 348 -254
349 -48 4 -1061 3 -1073 -1z m476 -530 c19 3 55 3 80 0 25 -3 57 -3 70 0 14 3
44 3 67 0 23 -4 46 -3 50 1 21 20 65 -5 103 -60 22 -31 47 -65 54 -76 8 -11
76 -108 150 -215 74 -107 140 -202 146 -210 6 -8 75 -107 153 -220 79 -113
159 -227 178 -255 177 -252 286 -410 294 -423 6 -10 13 -19 17 -22 20 -16 24
-92 23 -485 l0 -430 -115 -2 c-63 -1 -119 -2 -125 -3 -5 -1 -14 -2 -19 -1 -4
1 -97 1 -205 1 -108 -1 -205 -1 -216 -1 -11 0 -40 0 -65 0 -25 0 -49 0 -55 0
-5 -1 -95 0 -200 1 -104 1 -194 0 -200 -1 -5 -1 -14 -1 -19 0 -4 1 -97 1 -205
1 -108 -1 -205 -1 -216 -1 -11 0 -40 0 -65 0 -25 0 -49 0 -55 0 -5 -1 -95 0
-200 1 -104 1 -194 0 -200 -1 -5 -1 -14 -1 -19 0 -4 1 -99 1 -210 1 -236 -2
-248 -1 -254 5 -3 2 -5 202 -5 443 l0 438 76 110 c41 60 83 117 91 127 9 9 16
19 16 22 0 8 143 210 152 213 4 2 8 8 8 14 0 5 8 20 18 33 9 12 23 31 30 41 7
11 44 64 82 119 39 55 75 107 80 115 6 8 73 105 150 215 77 110 145 208 152
219 7 10 21 29 31 41 9 13 17 27 17 31 0 4 7 14 16 23 8 9 42 55 75 104 l61
87 64 -1 c36 -1 67 1 71 4 3 4 13 3 22 -1 9 -5 32 -6 51 -2z"/>
</g>
</svg>
