<?xml version="1.0" encoding="utf-8"?><svg xmlns="http://www.w3.org/2000/svg" xmlns:xlink="http://www.w3.org/1999/xlink"><symbol viewBox="0 0 31 32" id="arrow-left" xmlns="http://www.w3.org/2000/svg"><path d="M13.34 28L3.16 17.818 13.34 7.636l1.75 1.728-7.204 7.204h18.66v2.5H7.886l7.205 7.182L13.34 28z"/></symbol><symbol viewBox="0 0 31 32" id="arrow-right" xmlns="http://www.w3.org/2000/svg"><path d="M17.66 4l10.18 10.182-10.18 10.182-1.75-1.728 7.204-7.204H4.454v-2.5h18.66L15.909 5.75 17.66 4z"/></symbol><symbol viewBox="0 0 16 12" id="burger" xmlns="http://www.w3.org/2000/svg"><path d="M0 1h16M0 6h16M0 11h16"/></symbol><symbol viewBox="0 0 14 14" id="close" xmlns="http://www.w3.org/2000/svg"><path d="M1.001 13L13 1.001M1.001 1L13 12.999"/></symbol><symbol viewBox="0 0 10 11" id="cross" xmlns="http://www.w3.org/2000/svg"><path d="M9.3.901L.433 9.768m0-8.867L9.3 9.768"/></symbol><symbol viewBox="0 0 24 25" id="world" xmlns="http://www.w3.org/2000/svg"><path d="M12 3.6c4.667 4.927 4.667 12.873 0 17.8M12 21.4C7.333 16.473 7.333 8.527 12 3.6"/><path d="M12 3.5c4.982 0 9 4.018 9 9s-4.018 9-9 9M12 21.5c-4.982 0-9-4.018-9-9s4.018-9 9-9M3.51 9.5h16.98M3.51 15.5h16.98"/></symbol></svg>