<svg width="1520" height="168" viewBox="0 0 1520 168" fill="none" xmlns="http://www.w3.org/2000/svg">
<path fill-rule="evenodd" clip-rule="evenodd" d="M18.639 167.458H0V65.5549L46.0452 0H84.4174L130.459 65.5549V167.458H111.824V120.941H18.639V167.458ZM18.639 71.4269V102.335H111.824V71.4269L74.7213 18.6084H55.7409L18.639 71.4269ZM592.721 32.5624V60.4703C592.721 78.453 578.117 93.0324 560.105 93.0324H554.162L592.721 127.986V153.121V167.458H574.081V136.225L526.436 93.0324H480.898V167.458H462.261V0H560.105C578.117 0 592.721 14.5771 592.721 32.5624ZM480.898 18.6084V74.4246H560.105C567.823 74.4246 574.081 68.1781 574.081 60.4703V32.5624C574.081 24.8548 567.823 18.6084 560.105 18.6084H480.898ZM439.139 134.895V0H420.503V134.895C420.503 142.603 414.248 148.852 406.527 148.852H341.295C333.577 148.852 327.319 142.603 327.319 134.895V0H308.68V134.895C308.68 152.88 323.284 167.458 341.295 167.458H406.527C424.538 167.458 439.139 152.88 439.139 134.895ZM741.81 148.852V167.458H611.35V148.852H667.262V18.6084H611.35V0H741.81V18.6084H685.898V148.852H741.81ZM816.357 167.458H834.993V18.6084H890.902V0H760.442V18.6084H816.357V167.458ZM156.088 0H286.548V37.2136C274.009 48.5809 261.468 59.9476 248.928 71.3146C224.193 93.7348 199.457 116.156 174.728 138.583V148.852H286.548V167.458H156.088V130.344L267.912 28.9754V18.6084H156.088V0ZM909.538 167.458H1040V148.852H928.177V93.0324H1040V74.4246H928.177V18.6084H1040V0H909.538V167.458Z" fill="white"/>
<path d="M1160.59 43.7143H1186.39V51H1153V0H1160.59V43.7143Z" fill="white"/>
<path d="M1214.43 51H1208.36C1200.85 51 1194.7 45.0257 1194.7 37.8129V13.1143C1194.7 5.82858 1200.85 0 1208.36 0H1214.43C1222.02 0 1228.09 5.82858 1228.09 13.1143V37.8129C1228.09 45.0257 1222.02 51 1214.43 51ZM1214.43 43.6414C1217.77 43.6414 1220.5 41.0186 1220.5 37.8129V13.1143C1220.5 9.83572 1217.84 7.28572 1214.43 7.28572H1208.36C1204.95 7.28572 1202.29 9.90857 1202.29 13.1143V37.8129C1202.29 41.0186 1205.02 43.6414 1208.36 43.6414H1214.43Z" fill="white"/>
<path d="M1269.79 17.1214H1262.2V13.1143C1262.2 9.83572 1259.55 7.28572 1256.13 7.28572H1250.06C1246.65 7.28572 1243.99 9.90857 1243.99 13.1143V37.8129C1243.99 41.0186 1246.72 43.6414 1250.06 43.6414H1256.13C1259.47 43.6414 1262.2 41.0186 1262.2 37.8129V33.8057V30.8186H1250.82V23.5329H1269.79V33.8057V37.8129C1269.79 45.0257 1263.72 51 1256.13 51H1250.06C1242.55 51 1236.4 45.0257 1236.4 37.8129V13.1143C1236.4 5.82858 1242.55 0 1250.06 0H1256.13C1263.72 0 1269.79 5.82858 1269.79 13.1143V17.1214Z" fill="white"/>
<path d="M1311.49 7.28572H1298.59V43.7143H1311.49V51H1291H1278.11V43.7143H1291V7.28572H1278.11V0H1298.59H1311.49V7.28572Z" fill="white"/>
<path d="M1319.81 34.5343H1327.39V37.4486C1327.39 40.8729 1330.35 43.7143 1333.92 43.7143H1339C1342.87 43.7143 1345.61 41.3829 1345.61 38.1771C1345.61 28.1229 1320.57 25.9371 1320.57 12.0943C1320.57 4.95429 1326.41 0 1334.68 0H1338.25C1346.06 0 1352.43 6.04714 1352.43 13.5514V15.7371H1344.85V13.5514C1344.85 10.0543 1341.89 7.28572 1338.25 7.28572H1334.68C1330.58 7.28572 1328.15 9.10714 1328.15 12.0943C1328.15 19.8171 1353.19 22.8043 1353.19 38.1771C1353.19 45.4629 1347.05 51 1339 51H1333.92C1326.11 51 1319.81 44.9529 1319.81 37.4486V34.5343Z" fill="white"/>
<path d="M1394.89 0V7.28572H1382V51H1374.41V7.28572H1361.51V0H1382H1394.89Z" fill="white"/>
<path d="M1436.6 7.28572H1423.7V43.7143H1436.6V51H1416.11H1403.21V43.7143H1416.11V7.28572H1403.21V0H1423.7H1436.6V7.28572Z" fill="white"/>
<path d="M1470.71 17.1214V13.1143C1470.71 9.83572 1468.05 7.28572 1464.64 7.28572H1458.57C1455.16 7.28572 1452.5 9.90857 1452.5 13.1143V37.8129C1452.5 41.0186 1455.23 43.6414 1458.57 43.6414H1464.64C1467.98 43.6414 1470.71 41.0186 1470.71 37.8129V33.8057H1478.3V37.8129C1478.3 45.0257 1472.23 51 1464.64 51H1458.57C1451.06 51 1444.91 45.0257 1444.91 37.8129V13.1143C1444.91 5.82858 1451.06 0 1458.57 0H1464.64C1472.23 0 1478.3 5.82858 1478.3 13.1143V17.1214H1470.71Z" fill="white"/>
<path d="M1486.61 34.5343H1494.2V37.4486C1494.2 40.8729 1497.16 43.7143 1500.73 43.7143H1505.81C1509.68 43.7143 1512.41 41.3829 1512.41 38.1771C1512.41 28.1229 1487.37 25.9371 1487.37 12.0943C1487.37 4.95429 1493.22 0 1501.49 0H1505.05C1512.87 0 1519.24 6.04714 1519.24 13.5514V15.7371H1511.65V13.5514C1511.65 10.0543 1508.69 7.28572 1505.05 7.28572H1501.49C1497.39 7.28572 1494.96 9.10714 1494.96 12.0943C1494.96 19.8171 1520 22.8043 1520 38.1771C1520 45.4629 1513.85 51 1505.81 51H1500.73C1492.91 51 1486.61 44.9529 1486.61 37.4486V34.5343Z" fill="white"/>
</svg>
