<svg width="595" height="70" viewBox="0 0 595 70" fill="none" xmlns="http://www.w3.org/2000/svg">
<path fill-rule="evenodd" clip-rule="evenodd" d="M7.70229 69.1992H0V27.0895L19.0274 0H34.8842L53.9103 27.0895V69.1992H46.2094V49.9771H7.70229V69.1992ZM7.70229 29.5161V42.2885H46.2094V29.5161L30.8774 7.68962H23.0341L7.70229 29.5161ZM244.932 13.4559V24.9884C244.932 32.4195 238.898 38.4442 231.455 38.4442H228.999L244.932 52.8883V63.2747V69.1992H237.23V56.2927L217.542 38.4442H198.723V69.1992H191.022V0H231.455C238.898 0 244.932 6.02374 244.932 13.4559ZM198.723 7.68962V30.7548H231.455C234.644 30.7548 237.23 28.1735 237.23 24.9884V13.4559C237.23 10.2708 234.644 7.68962 231.455 7.68962H198.723ZM181.467 55.7433V0H173.766V55.7433C173.766 58.9285 171.181 61.5106 167.991 61.5106H141.035C137.846 61.5106 135.259 58.9285 135.259 55.7433V0H127.557V55.7433C127.557 63.1753 133.592 69.1992 141.035 69.1992H167.991C175.434 69.1992 181.467 63.1753 181.467 55.7433ZM306.541 61.5106V69.1992H252.631V61.5106H275.735V7.68962H252.631V0H306.541V7.68962H283.436V61.5106H306.541ZM337.347 69.1992H345.048V7.68962H368.151V0H314.241V7.68962H337.347V69.1992ZM64.5011 0H118.411V15.3779C113.23 20.0753 108.048 24.7724 102.866 29.4696C92.6441 38.7344 82.4225 47.9996 72.2035 57.267V61.5106H118.411V69.1992H64.5011V53.8627L110.71 11.9736V7.68962H64.5011V0ZM375.852 69.1992H429.764V61.5106H383.554V38.4442H429.764V30.7548H383.554V7.68962H429.764V0H375.852V69.1992Z" fill="white"/>
<path d="M460.354 16.3893H470.019V19.1208H457.512V0H460.354V16.3893Z" fill="white"/>
<path d="M480.525 19.1208H478.251C475.437 19.1208 473.134 16.881 473.134 14.1767V4.91679C473.134 2.18524 475.437 0 478.251 0H480.525C483.367 0 485.641 2.18524 485.641 4.91679V14.1767C485.641 16.881 483.367 19.1208 480.525 19.1208ZM480.525 16.362C481.776 16.362 482.799 15.3786 482.799 14.1767V4.91679C482.799 3.68759 481.804 2.73155 480.525 2.73155H478.251C476.972 2.73155 475.977 3.71491 475.977 4.91679V14.1767C475.977 15.3786 477 16.362 478.251 16.362H480.525Z" fill="white"/>
<path d="M501.264 6.41914H498.421V4.91679C498.421 3.68759 497.427 2.73155 496.147 2.73155H493.873C492.594 2.73155 491.599 3.71491 491.599 4.91679V14.1767C491.599 15.3786 492.623 16.362 493.873 16.362H496.147C497.398 16.362 498.421 15.3786 498.421 14.1767V12.6744V11.5544H494.158V8.8229H501.264V12.6744V14.1767C501.264 16.881 498.99 19.1208 496.147 19.1208H493.873C491.059 19.1208 488.757 16.881 488.757 14.1767V4.91679C488.757 2.18524 491.059 0 493.873 0H496.147C498.99 0 501.264 2.18524 501.264 4.91679V6.41914Z" fill="white"/>
<path d="M516.887 2.73155H512.054V16.3893H516.887V19.1208H509.212H504.38V16.3893H509.212V2.73155H504.38V0H512.054H516.887V2.73155Z" fill="white"/>
<path d="M520.002 12.9475H522.845V14.0402C522.845 15.324 523.953 16.3893 525.289 16.3893H527.194C528.643 16.3893 529.667 15.5152 529.667 14.3133C529.667 10.5438 520.286 9.72431 520.286 4.53437C520.286 1.85745 522.475 0 525.573 0H526.909C529.837 0 532.225 2.26718 532.225 5.08068V5.90014H529.382V5.08068C529.382 3.76954 528.274 2.73155 526.909 2.73155H525.573C524.039 2.73155 523.129 3.41443 523.129 4.53437C523.129 7.42981 532.509 8.54974 532.509 14.3133C532.509 17.0449 530.207 19.1208 527.194 19.1208H525.289C522.361 19.1208 520.002 16.8536 520.002 14.0402V12.9475Z" fill="white"/>
<path d="M548.132 0V2.73155H543.3V19.1208H540.457V2.73155H535.625V0H543.3H548.132Z" fill="white"/>
<path d="M563.754 2.73155H558.922V16.3893H563.754V19.1208H556.08H551.247V16.3893H556.08V2.73155H551.247V0H558.922H563.754V2.73155Z" fill="white"/>
<path d="M576.535 6.41914V4.91679C576.535 3.68759 575.54 2.73155 574.261 2.73155H571.987C570.707 2.73155 569.713 3.71491 569.713 4.91679V14.1767C569.713 15.3786 570.736 16.362 571.987 16.362H574.261C575.511 16.362 576.535 15.3786 576.535 14.1767V12.6744H579.377V14.1767C579.377 16.881 577.103 19.1208 574.261 19.1208H571.987C569.172 19.1208 566.87 16.881 566.87 14.1767V4.91679C566.87 2.18524 569.172 0 571.987 0H574.261C577.103 0 579.377 2.18524 579.377 4.91679V6.41914H576.535Z" fill="white"/>
<path d="M582.493 12.9475H585.335V14.0402C585.335 15.324 586.444 16.3893 587.78 16.3893H589.684C591.134 16.3893 592.157 15.5152 592.157 14.3133C592.157 10.5438 582.777 9.72431 582.777 4.53437C582.777 1.85745 584.966 0 588.064 0H589.4C592.328 0 594.715 2.26718 594.715 5.08068V5.90014H591.873V5.08068C591.873 3.76954 590.764 2.73155 589.4 2.73155H588.064C586.529 2.73155 585.619 3.41443 585.619 4.53437C585.619 7.42981 595 8.54974 595 14.3133C595 17.0449 592.697 19.1208 589.684 19.1208H587.78C584.852 19.1208 582.493 16.8536 582.493 14.0402V12.9475Z" fill="white"/>
</svg>
