<svg width="53" height="33" viewBox="0 0 53 33" fill="none" xmlns="http://www.w3.org/2000/svg">
<g clip-path="url(#clip0_811_601)">
<path fill-rule="evenodd" clip-rule="evenodd" d="M37.3736 12.6431L29.6812 1.57031C27.5443 1.57031 25.4074 1.57031 23.2705 1.57031L15.5781 12.6431C15.5781 18.3809 15.5781 24.1181 15.5781 29.856H18.6916V21.9986H34.2601V29.856H37.3736C37.3736 24.1181 37.3736 18.3809 37.3736 12.6431ZM18.6916 13.6354L24.8902 4.71302H28.0617L34.2601 13.6354V18.8559H18.6916V13.6354Z" fill="#181818"/>
<path fill-rule="evenodd" clip-rule="evenodd" d="M8.17702 29.8572H12.4545V33H6.5574L0 23.5611C0 18.8538 0 14.1461 0 9.43897L6.5574 0H12.4545V3.1427H8.17702L3.11351 10.4313V22.5688L8.17702 29.8572Z" fill="#181818"/>
<path fill-rule="evenodd" clip-rule="evenodd" d="M52.9433 9.43897L46.3854 0H40.4883V3.1427H44.7663L49.8293 10.4313V22.5688L44.7663 29.8572H40.4883V33H46.3854L52.9433 23.5611C52.9433 18.8538 52.9433 14.1461 52.9433 9.43897Z" fill="#181818"/>
</g>
<defs>
<clipPath id="clip0_811_601">
<rect width="53" height="33" fill="white"/>
</clipPath>
</defs>
</svg>
