<svg width="75" height="20" viewBox="0 0 75 20" fill="none" xmlns="http://www.w3.org/2000/svg">
<path fill-rule="evenodd" clip-rule="evenodd" d="M40.7859 5.22473C40.9639 5.41093 42.5657 9.84689 42.7332 10.3945C42.9 10.9813 43.1356 11.5442 43.4347 12.0703C43.9895 12.2018 44.0419 11.6213 44.2094 11.1612C45.1202 8.67492 46.5022 5.04948 47.1932 2.60697C47.6748 1.42404 47.7167 1.10641 46.8477 1.10641C45.9787 1.10641 46.073 1.69787 45.7275 2.46458C45.4239 3.92132 44.2513 6.99911 43.822 8.41205C43.822 8.59825 43.822 8.59825 43.6022 8.59825C42.8798 6.49528 42.0422 3.92132 41.2256 1.84026C41.0057 1.435 40.6184 1.34737 40.3566 2.25647C39.9169 3.70226 39.3097 5.42188 38.8386 6.82386C38.8386 6.82386 38.2732 8.59825 38.2313 8.68587C37.9319 8.18223 37.7127 7.63106 37.5822 7.05388C36.9331 5.37807 36.3678 3.57083 35.8129 1.89502C35.6768 1.57738 35.6768 1.39118 35.3732 1.20498C35.0688 1.087 34.7398 1.05674 34.4204 1.11736C33.5619 1.25975 34.1168 1.98265 34.2948 2.51934C35.3417 5.46569 36.5039 9.00351 37.666 11.8075C37.6932 11.877 37.7374 11.9377 37.7942 11.9836C37.851 12.0295 37.9183 12.0589 37.9895 12.0689C38.0606 12.0789 38.133 12.0691 38.1993 12.0405C38.2657 12.0119 38.3237 11.9656 38.3674 11.906C38.5349 11.5665 40.6602 5.22473 40.7859 5.22473Z" fill="white" fill-opacity="0.4"/>
<path fill-rule="evenodd" clip-rule="evenodd" d="M1.16987 1.29273C1.12659 1.47519 1.14129 1.66744 1.21175 1.84038C1.38973 2.60709 0.866254 11.3476 1.00236 11.6981C1.42614 11.8974 1.90126 11.9437 2.35292 11.8295C2.56231 11.5995 2.47856 11.3804 2.47856 11.019C2.47856 9.47461 2.60419 7.985 2.60419 6.39682C2.65654 5.80536 2.69842 5.4001 2.69842 5.03865C2.69842 4.6772 2.69842 4.72102 2.78217 4.63339C2.86593 4.54577 4.23743 7.04305 4.37353 7.31687C4.63527 7.85357 5.14828 8.67504 5.49377 9.31032C6.01724 10.307 6.27898 9.62795 6.40461 9.39794C6.70823 8.99268 9.0534 4.68816 9.22091 4.60053C9.37795 4.77578 9.37795 9.0803 9.37795 9.39794C9.37795 11.7528 9.11621 11.9828 10.5401 11.8843C10.9798 11.8843 11.0217 11.5228 10.9798 11.1176C10.9798 10.3508 10.9798 9.48556 10.9798 8.71886C10.8646 6.76922 10.7809 4.54577 10.7809 2.60709C10.7809 2.37708 10.8646 1.51179 10.8646 1.38036C10.7364 1.22925 10.5628 1.12844 10.3725 1.09458C10.1821 1.06072 9.98637 1.09585 9.81767 1.19416C9.51405 1.38036 9.4303 1.78562 9.21044 2.05944C8.331 3.69144 7.14795 5.54249 6.32086 7.08686C6.01724 7.63451 6.01724 7.44831 5.75551 7.08686C5.19015 6.22157 4.45729 4.73197 3.94428 3.86668L2.89734 2.05944C2.75181 1.74538 2.56504 1.45413 2.34245 1.19416C2.04931 0.975096 1.47348 1.15034 1.16987 1.29273Z" fill="white" fill-opacity="0.4"/>
<path fill-rule="evenodd" clip-rule="evenodd" d="M56.4149 6.36275C56.7855 6.04644 57.2251 5.83091 57.6945 5.73536C58.164 5.63981 58.6487 5.6672 59.1056 5.8151C60.4876 6.45037 60.6656 8.5862 60.0583 9.62674C59.7997 10.0323 59.4272 10.3438 58.9921 10.5184C58.557 10.693 58.0809 10.7221 57.6294 10.6016C57.192 10.5112 56.778 10.3246 56.4149 10.0539V6.36275ZM56.4149 4.81838C56.3496 3.62548 56.3496 2.42965 56.4149 1.23675C56.4149 0.743869 56.2474 0.656245 55.8077 0.831493C54.7608 1.29152 54.7608 1.10532 54.9073 2.10204C54.9911 2.60588 54.9073 8.44382 54.9073 9.26529C54.9073 10.8863 54.6875 11.2587 56.9384 11.9378C57.5794 12.0785 58.2409 12.0821 58.8832 11.9484C59.5255 11.8148 60.1353 11.5467 60.676 11.1602C62.8851 9.26529 62.2779 3.92023 58.2471 4.32549C57.8958 4.34539 57.546 4.38929 57.2002 4.45693C57.0641 4.50074 56.551 4.81838 56.4882 4.81838H56.4149Z" fill="white" fill-opacity="0.4"/>
<path fill-rule="evenodd" clip-rule="evenodd" d="M25.8865 11.7959C26.0503 11.2247 26.0966 10.6237 26.0226 10.0325C25.9798 9.4126 25.9798 8.79031 26.0226 8.17045C26.1483 8.17045 26.2844 8.40046 26.5461 8.67429C26.8078 8.94811 28.9646 11.303 29.3101 11.5659C29.4306 11.6832 29.5759 11.7692 29.7342 11.8168C29.8924 11.8644 30.0592 11.8722 30.2209 11.8397C30.5245 11.8397 31.0061 11.8397 31.1736 11.6206C31.1736 11.303 30.5664 10.7992 30.3047 10.5253C30.0429 10.2515 29.7079 9.90102 29.4043 9.52862C28.7384 8.9155 28.1156 8.25295 27.5407 7.54613C27.5407 7.44755 29.9173 5.35553 30.357 4.96123C30.5245 4.77503 30.7025 4.73121 30.6606 4.45739C30.1217 4.28348 29.5453 4.28348 29.0064 4.45739C28.797 4.55597 27.3627 5.91414 26.9754 6.27558C26.8497 6.40702 26.1064 7.22849 26.0226 7.18468C25.897 6.76847 26.0226 1.10578 25.9389 0.78814C25.8551 0.470503 24.3789 0.97434 24.4208 1.52199C24.5029 1.90678 24.545 2.29971 24.5464 2.69396V10.5253C24.5464 10.7992 24.4627 11.6206 24.6407 11.7521C25.048 11.861 25.4731 11.8759 25.8865 11.7959Z" fill="white" fill-opacity="0.4"/>
<path fill-rule="evenodd" clip-rule="evenodd" d="M14.6094 8.08371C15.091 7.95228 16.7033 8.35754 16.7766 8.80661C16.8184 9.2912 16.8184 9.77876 16.7766 10.2634C16.4729 10.6686 14.3895 11.4791 13.6985 10.0333C13.6054 9.82796 13.5571 9.60348 13.5571 9.37616C13.5571 9.14884 13.6054 8.92437 13.6985 8.71898C13.7991 8.55199 13.9322 8.40908 14.0891 8.29961C14.2461 8.19014 14.4234 8.11657 14.6094 8.08371ZM16.8184 7.53606C16.4116 7.25411 15.9566 7.05699 15.4783 6.95555C14.8824 6.88651 14.2793 6.93104 13.6985 7.08699C13.2095 7.23352 12.7783 7.54035 12.4684 7.96236C12.1584 8.38437 11.9861 8.89929 11.9767 9.43139C11.9673 9.96349 12.1214 10.4847 12.4163 10.9184C12.7111 11.352 13.1312 11.6753 13.6148 11.8406C14.4429 12.136 15.3412 12.136 16.1693 11.8406C16.3473 11.753 16.6928 11.5229 16.8184 11.4791C16.9441 11.4353 16.9964 11.7968 17.1639 11.8844C17.3314 11.972 18.1167 11.8844 18.3365 11.6653C18.5564 11.4463 18.5983 11.4791 18.4621 11.1615C18.2596 10.7424 18.1864 10.2678 18.2528 9.80333V6.53934C18.3075 6.07718 18.1996 5.60997 17.9491 5.22498C17.1221 3.50536 12.1386 4.18445 12.5364 5.6412C12.9343 7.09794 13.5834 5.13736 15.782 5.41118C16.965 5.54262 16.8394 6.72554 16.8394 7.53606H16.8184Z" fill="white" fill-opacity="0.4"/>
<path fill-rule="evenodd" clip-rule="evenodd" d="M68.0688 7.31708H64.4777C64.5259 6.86735 64.722 6.44914 65.0326 6.13416C65.3717 5.82312 65.7976 5.63489 66.2471 5.59746C66.4812 5.57723 66.7168 5.60657 66.9399 5.68373C67.163 5.76088 67.3689 5.88428 67.5453 6.04654C67.7229 6.19943 67.8631 6.39448 67.9542 6.61547C68.0452 6.83646 68.0845 7.077 68.0688 7.31708ZM64.3835 8.48905C64.6453 8.35762 68.5713 8.48905 69.2832 8.48905C69.9952 8.48905 69.6706 6.04654 68.3724 5.04981C67.842 4.63615 67.2106 4.38784 66.5511 4.33357C65.8916 4.27929 65.2309 4.42126 64.6452 4.74308C64.0595 5.06491 63.5728 5.55346 63.2412 6.15233C62.9096 6.75121 62.7467 7.43598 62.7712 8.1276C62.7464 8.79934 62.8958 9.46559 63.2036 10.0557C63.5114 10.6458 63.9662 11.1377 64.5196 11.4792C65.6817 12.3007 68.8016 12.2569 69.189 10.9863C69.6706 9.35434 68.5399 10.2634 68.1421 10.4387C67.8075 10.5822 67.4549 10.6744 67.0951 10.7125C64.7814 10.9863 64.216 8.8505 64.3835 8.48905Z" fill="white" fill-opacity="0.4"/>
<path fill-rule="evenodd" clip-rule="evenodd" d="M48.6697 7.31591C48.7064 6.84809 48.9097 6.41176 49.2393 6.0933C49.5689 5.77483 50.0008 5.59746 50.4495 5.59629C51.3499 5.49771 52.3968 6.31919 52.2188 7.31591H48.6697ZM48.4917 8.41121C48.7116 8.41121 52.7842 8.41121 53.3495 8.41121C53.9149 8.41121 53.8207 8.04976 53.7788 7.60068C53.7482 6.99252 53.5671 6.4031 53.2533 5.89016C52.9396 5.37722 52.5038 4.95834 51.9887 4.67456C51.4737 4.39079 50.897 4.25184 50.3152 4.27133C49.7333 4.29083 49.1663 4.46809 48.6697 4.78577C48.1112 5.13093 47.6545 5.63046 47.3498 6.22947C47.045 6.82848 46.904 7.50379 46.9422 8.18119C46.8978 8.84988 47.0417 9.51753 47.3562 10.1015C47.6707 10.6856 48.1419 11.1603 48.7116 11.4671C50.1878 12.42 53.0878 12.0147 53.3495 10.9304C53.3495 10.6128 53.5589 9.83509 53.0878 10.0213C52.5187 10.3579 51.8992 10.5912 51.2556 10.7113C50.9126 10.7593 50.5638 10.7356 50.2295 10.6416C49.8953 10.5476 49.5822 10.3851 49.3083 10.1637C48.9314 9.84605 48.3242 8.89314 48.4917 8.41121Z" fill="white" fill-opacity="0.4"/>
<path fill-rule="evenodd" clip-rule="evenodd" d="M72.0059 11.8394C72.2676 11.5656 72.2257 11.4342 72.2257 11.0289V9.93361C72.2257 8.48782 71.964 6.08911 73.5658 5.72767C73.9113 5.64004 73.9951 5.94673 74.4348 5.8591C74.6941 5.61571 74.8889 5.30632 75.0002 4.96096C75.0002 4.27092 73.9532 4.13948 73.0005 4.58856C72.6969 4.73094 72.4456 5.22383 72.2257 5.26764C72.2257 4.86238 72.3095 4.68713 72.0478 4.32568C71.7122 4.35935 71.3874 4.46765 71.095 4.64332C70.6658 4.86238 70.582 4.86238 70.6658 5.41003C70.7495 5.95768 70.6658 9.71455 70.6658 10.6127C70.7077 11.9818 70.7077 11.938 72.0059 11.8394Z" fill="white" fill-opacity="0.4"/>
<path fill-rule="evenodd" clip-rule="evenodd" d="M20.957 11.7956V11.708C21.0785 10.5955 21.11 9.47435 21.0512 8.35636C21.0512 7.49107 21.2606 6.08909 22.1714 5.81527C22.9043 5.54144 22.9462 6.26434 23.4278 5.81527C24.548 4.58853 23.0404 4.09565 22.1295 4.50091C21.2187 4.90617 21.3443 5.22381 21.0826 5.31143C21.0616 5.13321 21.0616 4.95296 21.0826 4.77473C21.0826 4.54472 20.9884 4.54472 20.9046 4.41329C20.5689 4.41043 20.2391 4.50523 19.9519 4.68711C19.5226 4.86236 19.3865 4.90617 19.5226 5.45382C19.6147 6.29353 19.6427 7.13959 19.6064 7.98396V10.4812C19.7006 11.8394 19.5226 11.938 20.957 11.7956Z" fill="white" fill-opacity="0.4"/>
<path fill-rule="evenodd" clip-rule="evenodd" d="M40.4823 13.2527C38.754 13.4758 37.0546 13.8982 35.4151 14.5123C34.9021 14.7423 34.3681 14.8738 33.8551 15.1038C32.8082 15.509 31.824 15.8705 30.7875 16.2867C30.4421 16.4181 27.9713 17.1849 27.542 17.2834C25.4481 17.8201 22.3073 18.4554 20.3076 17.5025C19.3549 17.0096 19.2606 18.543 21.4278 19.0907C22.6952 19.3229 23.9957 19.2631 25.2387 18.9154C26.2857 18.6854 27.542 18.2801 28.5366 17.9625C29.5312 17.6449 30.7038 17.2834 31.7821 16.9658C32.0439 16.8672 32.2533 16.7796 32.5569 16.692L34.1587 16.1881C34.4623 16.1005 34.6822 15.9691 34.9439 15.8705L36.5981 15.4652C36.9017 15.3776 37.1216 15.29 37.3833 15.1914C39.5753 14.7022 41.8111 14.4598 44.0524 14.4685C44.6073 14.4685 45.4344 14.6109 45.9997 14.6985C47.0467 14.83 46.8163 14.2494 46.1253 13.877C44.3287 13.1569 42.3831 12.9416 40.4823 13.2527Z" fill="#F9CC46"/>
</svg>
