<svg width="80" height="80" viewBox="0 0 80 80" fill="none" xmlns="http://www.w3.org/2000/svg">
<path fill-rule="evenodd" clip-rule="evenodd" d="M60.8084 25.8576C57.0576 29.6083 54.9504 34.6954 54.9504 39.9998C54.9504 45.3042 57.0576 50.3913 60.8084 54.142L61.9522 55.2858C63.7931 57.1267 63.7931 60.1115 61.9522 61.9525C60.1112 63.7934 57.1265 63.7934 55.2855 61.9525L54.1416 60.8086C46.3311 52.9981 33.6678 52.9981 25.8573 60.8086L24.7134 61.9525C23.8294 62.8365 22.6304 63.3332 21.3802 63.3332C20.13 63.3332 18.9309 62.8365 18.047 61.9525H18.0466C16.2058 60.1114 16.2058 57.1268 18.0466 55.2858L19.1905 54.142C22.9412 50.3913 25.0484 45.3042 25.0484 39.9998C25.0484 34.6954 22.9412 29.6083 19.1905 25.8576L18.0467 24.7139C16.2058 22.8729 16.2058 19.8882 18.0467 18.0472C19.8877 16.2063 22.8724 16.2063 24.7134 18.0472L25.8411 19.1749C33.6741 26.9544 46.3165 26.9568 54.1524 19.1803L55.2855 18.0472C57.1264 16.2064 60.111 16.2064 61.952 18.0472H61.9522C63.793 19.8882 63.793 22.8729 61.9522 24.7139L60.8084 25.8576Z" stroke="#181818" stroke-width="2.5" stroke-linecap="round" stroke-linejoin="round"/>
<path d="M29.4275 69.428C24.2205 74.635 15.7783 74.635 10.5713 69.428C5.36427 64.221 5.36427 55.7788 10.5713 50.5718" stroke="#181818" stroke-width="2.5" stroke-linecap="round" stroke-linejoin="round"/>
<path d="M50.5723 10.572C55.7793 5.365 64.2215 5.365 69.4285 10.572C74.6355 15.779 74.6355 24.2212 69.4285 29.4282" stroke="#181818" stroke-width="2.5" stroke-linecap="round" stroke-linejoin="round"/>
<path d="M69.4285 50.5718C72.7968 53.9401 74.1123 58.8496 72.8794 63.4508C71.6465 68.052 68.0525 71.646 63.4513 72.8789C58.8501 74.1118 53.9406 72.7963 50.5723 69.428" stroke="#181818" stroke-width="2.5" stroke-linecap="round" stroke-linejoin="round"/>
<path d="M10.5713 29.4282C5.36427 24.2212 5.36427 15.779 10.5713 10.572C15.7783 5.365 24.2205 5.365 29.4275 10.572" stroke="#181818" stroke-width="2.5" stroke-linecap="round" stroke-linejoin="round"/>
<circle cx="40.0007" cy="39.9999" r="6.66667" stroke="#181818" stroke-width="2.5" stroke-linecap="round" stroke-linejoin="round"/>
</svg>
